<svg xmlns="http://www.w3.org/2000/svg" xmlns:xlink="http://www.w3.org/1999/xlink" width="25.59" height="24.937" viewBox="0 0 25.59 24.937">
  <defs>
    <style>
      .cls-1 {
        fill: #fff;
        fill-rule: evenodd;
        filter: url(#filter);
      }
    </style>
    <filter id="filter" x="1843.41" y="613.063" width="25.59" height="24.937" filterUnits="userSpaceOnUse">
      <feOffset result="offset" dx="2.084" dy="2.158" in="SourceAlpha"/>
      <feGaussianBlur result="blur" stdDeviation="1"/>
      <feFlood result="flood" flood-color="#000001" flood-opacity="0.3"/>
      <feComposite result="composite" operator="in" in2="blur"/>
      <feBlend result="blend" in="SourceGraphic"/>
    </filter>
  </defs>
  <path id="insta" class="cls-1" d="M1853.89,614.952c2.79,0,3.12.011,4.23,0.061a5.772,5.772,0,0,1,1.94.36,3.174,3.174,0,0,1,1.2.783,3.22,3.22,0,0,1,.79,1.2,5.97,5.97,0,0,1,.36,1.943c0.05,1.1.06,1.435,0.06,4.23s-0.01,3.126-.06,4.229a5.978,5.978,0,0,1-.36,1.944,3.22,3.22,0,0,1-.79,1.2,3.174,3.174,0,0,1-1.2.783,5.772,5.772,0,0,1-1.94.36c-1.11.05-1.44,0.061-4.23,0.061s-3.13-.011-4.23-0.061a5.847,5.847,0,0,1-1.95-.36,3.253,3.253,0,0,1-1.2-.783,3.2,3.2,0,0,1-.78-1.2,5.471,5.471,0,0,1-.36-1.944c-0.05-1.1-.07-1.434-0.07-4.229s0.02-3.126.07-4.23a5.464,5.464,0,0,1,.36-1.943,3.2,3.2,0,0,1,.78-1.2,3.253,3.253,0,0,1,1.2-.783,5.847,5.847,0,0,1,1.95-.36c1.1-.05,1.43-0.061,4.23-0.061m0-1.886c-2.85,0-3.2.012-4.32,0.063a7.748,7.748,0,0,0-2.54.486,5.379,5.379,0,0,0-3.06,3.062,7.611,7.611,0,0,0-.49,2.54c-0.05,1.117-.06,1.473-0.06,4.316s0.01,3.2.06,4.315a7.618,7.618,0,0,0,.49,2.541,5.379,5.379,0,0,0,3.06,3.062,7.748,7.748,0,0,0,2.54.486c1.12,0.051,1.47.063,4.32,0.063s3.2-.012,4.31-0.063a7.639,7.639,0,0,0,2.54-.486,5.214,5.214,0,0,0,1.86-1.208,5.041,5.041,0,0,0,1.2-1.854,7.618,7.618,0,0,0,.49-2.541c0.05-1.116.06-1.472,0.06-4.315s-0.01-3.2-.06-4.316a7.611,7.611,0,0,0-.49-2.54,5.041,5.041,0,0,0-1.2-1.854,5.214,5.214,0,0,0-1.86-1.208,7.639,7.639,0,0,0-2.54-.486c-1.11-.051-1.47-0.063-4.31-0.063m0,5.092a5.375,5.375,0,1,0,5.37,5.375,5.378,5.378,0,0,0-5.37-5.375m0,8.864a3.489,3.489,0,1,1,3.49-3.489,3.488,3.488,0,0,1-3.49,3.489m6.84-9.076a1.255,1.255,0,1,1-1.26-1.257,1.256,1.256,0,0,1,1.26,1.257" transform="translate(-1843.41 -613.063)"/>
</svg>
