<svg xmlns="http://www.w3.org/2000/svg" xmlns:xlink="http://www.w3.org/1999/xlink" width="27.22" height="24.969" viewBox="0 0 27.22 24.969">
  <defs>
    <style>
      .cls-1 {
        fill: #fff;
        fill-rule: evenodd;
      }
    </style>
    <filter id="filter" x="1842.78" y="316.031" width="27.22" height="24.969" filterUnits="userSpaceOnUse">
      <feOffset result="offset" dx="2.084" dy="2.158" in="SourceAlpha"/>
      <feGaussianBlur result="blur" stdDeviation="1"/>
      <feFlood result="flood" flood-color="#000001" flood-opacity="0.3"/>
      <feComposite result="composite" operator="in" in2="blur"/>
      <feBlend result="blend" in="SourceGraphic"/>
    </filter>
  </defs>
  <path id="teleg" class="cls-1" d="M1854.82,332.739c-0.38.346-.76,0.688-1.14,1.031-0.45.408-.89,0.83-1.36,1.22a1.341,1.341,0,0,1-1.19.265,1.326,1.326,0,0,1-.9-0.775,5.612,5.612,0,0,1-.39-1.047l-1.23-3.979c-0.06-.213-0.13-0.426-0.19-0.641a0.146,0.146,0,0,0-.1-0.1l-3.64-1.22a6.6,6.6,0,0,1-.79-0.3,1.954,1.954,0,0,1-.9-0.81,1.446,1.446,0,0,1,.33-1.849,2.784,2.784,0,0,1,.76-0.453c1.12-.47,2.24-0.94,3.37-1.41l4.92-2.063c2-.836,3.99-1.673,5.99-2.508q2.235-.935,4.47-1.863a2.325,2.325,0,0,1,1-.2,1.566,1.566,0,0,1,1.46,1.2,2.483,2.483,0,0,1-.02,1.051c-0.15.721-.29,1.441-0.43,2.162l-0.42,2.163c-0.18.873-.35,1.745-0.52,2.618-0.16.842-.33,1.683-0.5,2.525-0.2,1.042-.4,2.084-0.61,3.126-0.21,1.081-.42,2.162-0.64,3.243-0.03.191-.07,0.383-0.11,0.575a1.6,1.6,0,0,1-.36.713,2.008,2.008,0,0,1-1.86.741,2.1,2.1,0,0,1-.76-0.208,1.9,1.9,0,0,1-.28-0.195c-1.3-1-2.61-1.99-3.91-2.985A0.5,0.5,0,0,0,1854.82,332.739Zm-10.1-7.05c0.2,0.069.38,0.129,0.56,0.189q2.235,0.749,4.47,1.5a0.126,0.126,0,0,0,.12-0.013q0.66-.41,1.32-0.816l4.26-2.622c1.62-1,3.25-2,4.87-3a1.228,1.228,0,0,1,.33-0.118,0.171,0.171,0,0,1,.21.075,0.265,0.265,0,0,1-.02.306c-0.09.1-.17,0.2-0.27,0.287-0.64.6-1.29,1.195-1.94,1.793q-1.59,1.479-3.19,2.959c-1.03.962-2.07,1.924-3.11,2.888a0.178,0.178,0,0,0-.06.115c-0.09.518-.17,1.037-0.25,1.556-0.11.689-.22,1.378-0.32,2.067-0.03.137-.05,0.274-0.07,0.412a0.167,0.167,0,0,1,.02.008c1.02-.928,2.05-1.855,3.07-2.784,0.03,0.023.06,0.04,0.08,0.057l2.19,1.667q1.4,1.065,2.79,2.126a0.731,0.731,0,0,0,.3.122,0.245,0.245,0,0,0,.28-0.214c0.11-.54.22-1.081,0.32-1.622,0.25-1.247.49-2.494,0.74-3.741s0.49-2.523.74-3.784c0.19-.977.39-1.954,0.58-2.931,0.26-1.346.53-2.691,0.79-4.038,0.02-.105.04-0.212,0.05-0.318a0.036,0.036,0,0,0-.02-0.018Q1854.155,321.739,1844.72,325.689Z" transform="translate(-1842.78 -316.031)"/>
</svg>
