<svg xmlns="http://www.w3.org/2000/svg" xmlns:xlink="http://www.w3.org/1999/xlink" width="26.75" height="17.5" viewBox="0 0 26.75 17.5">
  <defs>
    <style>
      .cls-1 {
        fill: #fff;
        fill-rule: evenodd;
      }
    </style>
    <filter id="filter" x="1842.25" y="519.5" width="26.75" height="17.5" filterUnits="userSpaceOnUse">
      <feOffset result="offset" dx="2.084" dy="2.158" in="SourceAlpha"/>
      <feGaussianBlur result="blur" stdDeviation="1"/>
      <feFlood result="flood" flood-color="#000001" flood-opacity="0.3"/>
      <feComposite result="composite" operator="in" in2="blur"/>
      <feBlend result="blend" in="SourceGraphic"/>
    </filter>
  </defs>
  <path id="vk" class="cls-1" d="M1855.44,522.716c0,0.764,0,1.528.01,2.292a1.328,1.328,0,0,0,.07.442,0.355,0.355,0,0,0,.52.242,1.745,1.745,0,0,0,.46-0.263,7.416,7.416,0,0,0,1.47-1.641,20.823,20.823,0,0,0,2.03-3.581,1.06,1.06,0,0,1,.85-0.7,1.081,1.081,0,0,1,.17-0.013c0.88,0,1.75,0,2.63,0a1.154,1.154,0,0,1,.21.023,0.529,0.529,0,0,1,.48.679,4.327,4.327,0,0,1-.5,1.238,31.649,31.649,0,0,1-1.93,3.057c-0.29.425-.6,0.844-0.9,1.267-0.06.087-.11,0.18-0.17,0.271a0.567,0.567,0,0,0,.03.678,3.285,3.285,0,0,0,.33.378c0.85,0.836,1.7,1.673,2.46,2.584a6.641,6.641,0,0,1,1.02,1.484,1.044,1.044,0,0,1,.12.624,0.513,0.513,0,0,1-.35.455,1.208,1.208,0,0,1-.41.091c-0.9.009-1.8,0.008-2.71,0a1.193,1.193,0,0,1-.77-0.3c-0.22-.193-0.44-0.4-0.64-0.611a22.208,22.208,0,0,0-2.06-2.009,5.962,5.962,0,0,0-1.17-.777,1.48,1.48,0,0,0-.76-0.145,0.39,0.39,0,0,0-.43.353,5.029,5.029,0,0,0-.06.775c-0.01.583,0,1.167,0.01,1.75a0.759,0.759,0,0,1-.77.895,6.32,6.32,0,0,1-2.09-.012,9.314,9.314,0,0,1-4.64-2.269,13.047,13.047,0,0,1-2.01-2.263,26.49,26.49,0,0,1-2.86-4.912,11.41,11.41,0,0,1-.78-2.336,2.458,2.458,0,0,1-.04-0.269,0.616,0.616,0,0,1,.65-0.7c0.09-.007.17-0.008,0.26-0.008q1.17,0,2.34,0a2.509,2.509,0,0,1,.3.013,0.817,0.817,0,0,1,.64.407,3.951,3.951,0,0,1,.26.565,20.958,20.958,0,0,0,2.26,4.512,6.943,6.943,0,0,0,1.19,1.422,1.72,1.72,0,0,0,.41.266,0.387,0.387,0,0,0,.6-0.28,2.954,2.954,0,0,0,.05-0.594c0-1.133.01-2.266,0-3.4a2.623,2.623,0,0,0-.66-1.78,2.06,2.06,0,0,1-.23-0.3,0.54,0.54,0,0,1,.45-0.826c0.06-.006.12-0.007,0.18-0.007h3.69l0.12,0a0.576,0.576,0,0,1,.65.589,4.289,4.289,0,0,1,.02.507v2.123Z" transform="translate(-1842.25 -519.5)"/>
</svg>
