<?xml version="1.0" encoding="utf-8"?>
<!-- Generator: Adobe Illustrator 24.0.1, SVG Export Plug-In . SVG Version: 6.00 Build 0)  -->
<svg version="1.1" id="Слой_1" xmlns="http://www.w3.org/2000/svg" xmlns:xlink="http://www.w3.org/1999/xlink" x="0px" y="0px"
	 viewBox="0 0 25 17" style="enable-background:new 0 0 25 17;" xml:space="preserve">
<style type="text/css">
	.st0{fill:#FFFFFF;}
</style>
<g>
	<g>
		<path class="st0" d="M20.6,3.3l-8.1,7.14L4.4,3.3C4.08,3.02,3.59,3.05,3.3,3.37c-0.28,0.32-0.25,0.81,0.07,1.1l8.61,7.59
			c0.15,0.13,0.33,0.19,0.51,0.19s0.37-0.06,0.51-0.19l8.61-7.59c0.32-0.28,0.35-0.78,0.07-1.1C21.41,3.05,20.92,3.02,20.6,3.3z
			 M22.67,0H2.33C1.05,0,0,1.04,0,2.33v12.34C0,15.96,1.05,17,2.33,17h20.33c1.29,0,2.33-1.05,2.33-2.33V2.33
			C25,1.04,23.95,0,22.67,0z M23.44,14.67c0,0.43-0.35,0.78-0.78,0.78H2.33c-0.43,0-0.78-0.35-0.78-0.78V2.33
			c0-0.43,0.35-0.78,0.78-0.78h20.33c0.43,0,0.78,0.35,0.78,0.78V14.67z"/>
	</g>
</g>
</svg>
