<?xml version="1.0" encoding="utf-8"?>
<!-- Generator: Adobe Illustrator 24.0.1, SVG Export Plug-In . SVG Version: 6.00 Build 0)  -->
<svg version="1.1" id="Слой_1" xmlns="http://www.w3.org/2000/svg" xmlns:xlink="http://www.w3.org/1999/xlink" x="0px" y="0px"
	 viewBox="0 0 25 25" style="enable-background:new 0 0 25 25;" xml:space="preserve">
<style type="text/css">
	.st0{fill:#FFFFFF;}
</style>
<path class="st0" d="M21.37,16.16c-1.37-1.36-2.99-2.37-4.77-2.98c2.17-1.49,3.49-4.13,3.07-7.04c-0.47-3.19-3.1-5.73-6.32-6.1
	c-4.38-0.5-8.11,2.91-8.11,7.18c0,2.47,1.25,4.65,3.15,5.96C6.62,13.79,5,14.8,3.63,16.16C1.51,18.27,0.24,21.01,0,23.95
	C-0.05,24.52,0.41,25,0.98,25c0.51,0,0.93-0.39,0.97-0.89c0.46-5.4,5.01-9.65,10.55-9.65c5.53,0,10.09,4.25,10.55,9.65
	c0.04,0.51,0.46,0.89,0.97,0.89c0.57,0,1.03-0.48,0.98-1.05C24.76,21.01,23.49,18.27,21.37,16.16z M12.5,12.5
	c-2.92,0-5.29-2.37-5.29-5.27c0-2.91,2.37-5.27,5.29-5.27c2.92,0,5.29,2.37,5.29,5.27C17.79,10.13,15.42,12.5,12.5,12.5z"/>
</svg>
