<?xml version="1.0" encoding="utf-8"?>
<!-- Generator: Adobe Illustrator 24.0.1, SVG Export Plug-In . SVG Version: 6.00 Build 0)  -->
<svg version="1.1" id="Слой_1" xmlns="http://www.w3.org/2000/svg" xmlns:xlink="http://www.w3.org/1999/xlink" x="0px" y="0px"
	 viewBox="0 0 25 25" style="enable-background:new 0 0 25 25;" xml:space="preserve">
<style type="text/css">
	.st0{fill:#FFFFFF;}
</style>
<g>
	<g>
		<path class="st0" d="M21.63,3.27C19.46,1.16,16.57,0,13.5,0c-0.5,0-0.91,0.4-0.91,0.89s0.41,0.89,0.91,0.89
			c2.59,0,5.02,0.98,6.84,2.76c1.83,1.78,2.84,4.14,2.84,6.66c0,0.49,0.41,0.89,0.91,0.89c0.5,0,0.91-0.4,0.91-0.89
			C25,8.19,23.8,5.39,21.63,3.27z M17.88,11.18c0,0.49,0.41,0.89,0.91,0.89c0.5,0,0.91-0.4,0.91-0.89c0-3.33-2.78-6.03-6.21-6.04
			c-0.5,0-0.91,0.4-0.91,0.89c0,0.49,0.41,0.89,0.91,0.89C15.92,6.92,17.88,8.83,17.88,11.18z M15.86,15.7
			c-1.39-0.07-2.1,0.93-2.44,1.42c-0.28,0.4-0.18,0.96,0.24,1.23c0.42,0.28,0.98,0.17,1.27-0.23c0.4-0.57,0.58-0.66,0.83-0.65
			c0.79,0.09,3.9,2.3,4.21,3c0.08,0.2,0.08,0.4-0.01,0.65c-0.33,0.94-0.87,1.6-1.56,1.91c-0.66,0.29-1.47,0.27-2.34-0.08
			c-3.25-1.29-6.1-3.09-8.45-5.35c0,0,0,0,0,0c-2.32-2.29-4.17-5.05-5.49-8.21C1.76,8.54,1.73,7.76,2.03,7.11
			c0.32-0.68,1-1.2,1.97-1.52c0.25-0.08,0.46-0.08,0.66-0.01c0.71,0.3,2.99,3.32,3.08,4.08c0.01,0.25-0.08,0.43-0.67,0.81
			c-0.42,0.28-0.52,0.83-0.24,1.23c0.28,0.4,0.85,0.51,1.27,0.23c0.5-0.33,1.53-1.02,1.46-2.37C9.49,8.16,6.66,4.41,5.3,3.93
			C4.7,3.71,4.07,3.7,3.42,3.91C1.96,4.39,0.91,5.24,0.38,6.37c-0.52,1.1-0.5,2.37,0.05,3.69c1.42,3.38,3.4,6.34,5.89,8.79
			c0.01,0.01,0.01,0.01,0.02,0.02c2.52,2.42,5.56,4.34,9.03,5.72c0.7,0.28,1.38,0.41,2.03,0.41c0.62,0,1.21-0.12,1.75-0.37
			c1.16-0.52,2.04-1.54,2.53-2.96c0.22-0.63,0.21-1.24-0.01-1.83C21.18,18.53,17.32,15.78,15.86,15.7z"/>
	</g>
</g>
</svg>
