<svg xmlns="http://www.w3.org/2000/svg" xmlns:xlink="http://www.w3.org/1999/xlink" width="49.969" height="30" viewBox="0 0 49.969 30">
  <defs>
    <style>
      .cls-1 {
        fill: #fff;
        fill-rule: evenodd;
        filter: url(#filter);
      }
    </style>
    <filter id="filter" x="451.031" y="295" width="49.969" height="30" filterUnits="userSpaceOnUse">
      <feOffset result="offset" dx="0.5" dy="0.866" in="SourceAlpha"/>
      <feGaussianBlur result="blur" stdDeviation="1"/>
      <feFlood result="flood" flood-color="#000001" flood-opacity="0.2"/>
      <feComposite result="composite" operator="in" in2="blur"/>
      <feBlend result="blend" in="SourceGraphic"/>
    </filter>
  </defs>
  <path id="logo-Bolt" class="cls-1" d="M474.122,322.013a0.3,0.3,0,0,0-.2-0.059,2.4,2.4,0,1,1,.994,0,0.282,0.282,0,0,0-.187.058h-0.6ZM451.047,305.15q0-4.98,0-9.96c0-.156.043-0.19,0.193-0.19q3.6,0.007,7.19,0a6.259,6.259,0,0,1,6.165,4.919,6.127,6.127,0,0,1-.707,4.521,0.161,0.161,0,0,0,.026.237,6.044,6.044,0,0,1,1.7,3.5,6.282,6.282,0,0,1-5.382,7.078,4.907,4.907,0,0,1-.7.047q-4.144,0-8.287,0c-0.156,0-.2-0.031-0.2-0.2Q451.052,310.131,451.047,305.15Zm6.676,5.373c0.562,0,1.124,0,1.685,0a1.422,1.422,0,0,0,1.215-.639,1.4,1.4,0,0,0,.1-1.52,1.462,1.462,0,0,0-1.386-.819c-1.118,0-2.236,0-3.354,0a0.13,0.13,0,0,0-.16.161q0.007,1.335,0,2.672c0,0.134.048,0.153,0.164,0.152C456.568,310.521,457.145,310.523,457.723,310.523Zm-0.445-7.761h1.192a1.484,1.484,0,0,0,.034-2.967c-0.847-.01-1.695,0-2.543,0a0.108,0.108,0,0,0-.133.134q0,1.352,0,2.7c0,0.118.045,0.137,0.148,0.136C456.409,302.759,456.844,302.762,457.278,302.762Zm24.512,5.374a7.37,7.37,0,1,1-7.374-7.365A7.361,7.361,0,0,1,481.79,308.136Zm-4.991.014a2.38,2.38,0,1,0-2.39,2.374A2.384,2.384,0,0,0,476.8,308.15Zm13.069-3.265q0-3.142,0-6.285a0.194,0.194,0,0,1,.19-0.234q2.223-.463,4.442-0.942c0.121-.026.153-0.007,0.152,0.121,0,1.109,0,2.217-.006,3.326,0,0.137.028,0.178,0.172,0.176,0.684-.009,1.369,0,2.053-0.007,0.129,0,.169.028,0.168,0.164q-0.008,2.236,0,4.471c0,0.124-.03.162-0.157,0.16-0.689-.006-1.379,0-2.068,0-0.122,0-.163.028-0.163,0.157,0,1.236,0,2.472.006,3.708a2.765,2.765,0,0,0,.2,1.087,1.173,1.173,0,0,0,1.269.751,4.7,4.7,0,0,0,.8-0.114c0.079-.021.114,0,0.113,0.088q0,1.663,0,3.326a0.143,0.143,0,0,1-.1.141,4.986,4.986,0,0,1-2.536.533,5.612,5.612,0,0,1-2.033-.46A4.08,4.08,0,0,1,490,312.082a5.541,5.541,0,0,1-.134-1.245Q489.87,307.861,489.868,304.885Zm-1.846.271q0,4.98,0,9.96c0,0.155-.04.191-0.192,0.19q-2.211-.009-4.422,0c-0.152,0-.181-0.046-0.181-0.187q0.006-9.459,0-18.917a0.181,0.181,0,0,1,.172-0.219q2.238-.468,4.472-0.949c0.155-.034.149,0.039,0.149,0.146q0,4.479,0,8.958v1.018Z" transform="translate(-451.031 -295)"/>
</svg>
