<svg xmlns="http://www.w3.org/2000/svg" xmlns:xlink="http://www.w3.org/1999/xlink" width="99.906" height="23.906" viewBox="0 0 99.906 23.906">
  <defs>
    <style>
      .cls-1 {
        fill: #fff;
        fill-rule: evenodd;
        filter: url(#filter);
      }
    </style>
    <filter id="filter" x="313.094" y="295.094" width="99.906" height="23.906" filterUnits="userSpaceOnUse">
      <feOffset result="offset" dx="0.5" dy="0.866" in="SourceAlpha"/>
      <feGaussianBlur result="blur" stdDeviation="1"/>
      <feFlood result="flood" flood-color="#000001" flood-opacity="0.2"/>
      <feComposite result="composite" operator="in" in2="blur"/>
      <feBlend result="blend" in="SourceGraphic"/>
    </filter>
  </defs>
  <path id="logo-uber" class="cls-1" d="M355.649,304.37a0.678,0.678,0,0,0,.11.067,4.062,4.062,0,0,1,2.759,2.89,6.72,6.72,0,0,1,.07,3.722,4.66,4.66,0,0,1-3.513,3.368,11.33,11.33,0,0,1-3.2.372q-4.929,0-9.86,0a5.061,5.061,0,0,1-.967-0.092,0.845,0.845,0,0,1-.714-0.787,3.681,3.681,0,0,1-.03-0.469q0-8.415,0-16.831a1.29,1.29,0,0,1,1.487-1.514c3.354-.008,6.708-0.034,10.061.022a11,11,0,0,1,2.842.455,4.052,4.052,0,0,1,3.144,4.074,8.149,8.149,0,0,1-.15,1.9A4.088,4.088,0,0,1,355.649,304.37ZM344.4,311.64c0.078,0.008.121,0.016,0.165,0.016,2.478,0,4.957.006,7.436-.014a4.793,4.793,0,0,0,1.254-.2,1.619,1.619,0,0,0,1.244-1.325,8.412,8.412,0,0,0,.088-1.9,1.813,1.813,0,0,0-1.4-1.768,5.34,5.34,0,0,0-1.293-.18c-1.749-.019-3.5-0.023-5.249,0a4.919,4.919,0,0,0-1.348.227,1.2,1.2,0,0,0-.884,1.157C344.381,308.969,344.4,310.291,344.4,311.64Zm0-8.367c0.1,0.006.17,0.013,0.236,0.013q3.109,0,6.22,0a8.2,8.2,0,0,0,.872-0.053,1.886,1.886,0,0,0,1.926-1.793,6.559,6.559,0,0,0-.029-1.571,1.7,1.7,0,0,0-1.466-1.54,5.673,5.673,0,0,0-1.132-.126c-2.1-.012-4.192-0.006-6.288,0-0.108,0-.217.009-0.339,0.015v5.062Zm50.157,11.5c-0.126.007-.225,0.019-0.323,0.019-1.032,0-2.064,0-3.1,0-0.565,0-.674-0.112-0.674-0.667q0-8.771,0-17.539a1.277,1.277,0,0,1,1.45-1.487c3.4-.012,6.8-0.017,10.2.009a10.027,10.027,0,0,1,3.107.523,4.673,4.673,0,0,1,3.354,3.875,9.222,9.222,0,0,1-.062,3.577,4.665,4.665,0,0,1-3.345,3.653l-0.409.132c0.068,0.129.119,0.236,0.179,0.338q2.061,3.528,4.124,7.056c0.253,0.433.2,0.529-.287,0.53-1.122,0-2.244-.011-3.365.007a0.857,0.857,0,0,1-.85-0.517c-1.22-2.233-2.462-4.454-3.687-6.684a0.528,0.528,0,0,0-.54-0.33c-1.133.019-2.266,0-3.4,0.013a5.381,5.381,0,0,0-1.132.128,1.424,1.424,0,0,0-1.236,1.56c-0.011,1.806,0,3.613,0,5.42v0.384Zm0.02-16.494v5.9c0.107,0.006.2,0.016,0.282,0.016,2.176,0,4.351,0,6.527,0a8.512,8.512,0,0,0,1.2-.084,1.95,1.95,0,0,0,1.888-1.862,8.4,8.4,0,0,0,0-2.042,1.95,1.95,0,0,0-1.782-1.858,3.23,3.23,0,0,0-.632-0.083q-3.7-.014-7.4-0.012A0.458,0.458,0,0,0,394.578,298.276Zm-11.13-3.161c-0.42,1.023-.811,2-1.225,2.957a0.514,0.514,0,0,1-.334.185,2.153,2.153,0,0,1-.469.019H370.564v4.948h9.109c0.464,0,.475.017,0.3,0.449q-0.426,1.06-.852,2.122a0.643,0.643,0,0,1-.806.534c-1.8,0-3.591-.008-5.386.008a5.592,5.592,0,0,0-1.263.15,1.3,1.3,0,0,0-1.1,1.28c-0.03,1.253-.009,2.508-0.009,3.811h12.413c0.462,0,.48.026,0.31,0.448-0.309.77-.626,1.537-0.925,2.31a0.607,0.607,0,0,1-.63.449c-0.011,0-.023,0-0.034,0q-6.967,0-13.936-.011a2.41,2.41,0,0,1-.6-0.079,0.913,0.913,0,0,1-.745-0.917c-0.008-.112,0-0.224,0-0.336q0-8.418,0-16.836a1.29,1.29,0,0,1,1.483-1.516q7.625-.012,15.249,0C383.212,295.089,383.277,295.1,383.448,295.115Zm-66.174-.027v0.452c0,3.625-.009,7.25.008,10.875a11.633,11.633,0,0,0,.178,2.006,3.766,3.766,0,0,0,3.189,3.216,10.022,10.022,0,0,0,4.178,0,3.872,3.872,0,0,0,3.273-3.608,11.78,11.78,0,0,0,.092-1.442q0.01-5.387,0-10.774a0.841,0.841,0,0,1,.03-0.4,0.6,0.6,0,0,1,.357-0.313c1.255-.023,2.511-0.014,3.814-0.014v0.377q0,5.707,0,11.414a10.2,10.2,0,0,1-.466,3.184,6.44,6.44,0,0,1-4.29,4.318,15.281,15.281,0,0,1-9.756.014,6.607,6.607,0,0,1-4.646-5.7,12.853,12.853,0,0,1-.137-1.911c-0.013-3.692-.006-7.384-0.006-11.077,0-.558.065-0.624,0.611-0.624h3.569Z" transform="translate(-313.094 -295.094)"/>
</svg>
