<svg xmlns="http://www.w3.org/2000/svg" xmlns:xlink="http://www.w3.org/1999/xlink" width="139.969" height="26" viewBox="0 0 139.969 26">
  <defs>
    <style>
      .cls-1 {
        fill: #fff;
        fill-rule: evenodd;
        filter: url(#filter);
      }
    </style>
    <filter id="filter" x="310.031" y="294" width="139.969" height="26" filterUnits="userSpaceOnUse">
      <feOffset result="offset" dx="0.5" dy="0.866" in="SourceAlpha"/>
      <feGaussianBlur result="blur" stdDeviation="1"/>
      <feFlood result="flood" flood-color="#000001" flood-opacity="0.2"/>
      <feComposite result="composite" operator="in" in2="blur"/>
      <feBlend result="blend" in="SourceGraphic"/>
    </filter>
  </defs>
  <path id="logo-uberfood" class="cls-1" d="M386.1,312.211h2.125c2.819,0,5.637.012,8.455-.011,0.518,0,.709.139,0.686,0.669-0.037.838-.021,1.679,0,2.518a0.426,0.426,0,0,1-.517.512q-7.161-.015-14.322,0c-0.592,0-.494-0.37-0.494-0.717q0-9.348,0-18.7c0-.587.034-1.177-0.01-1.762-0.04-.537.166-0.67,0.68-0.668,4.29,0.019,8.581.011,12.871,0.011,0.379,0,.76.026,1.135-0.006a0.512,0.512,0,0,1,.663.629c-0.035.775-.035,1.554,0,2.329,0.023,0.507-.173.639-0.659,0.636-3.26-.018-6.52-0.01-9.78-0.01-0.829,0-.83,0-0.831.83,0,1.3.026,2.6-.015,3.9-0.018.589,0.13,0.79,0.76,0.783,3.155-.033,6.31.007,9.464-0.032,0.67-.009.834,0.2,0.79,0.819a16.174,16.174,0,0,0,0,2.077c0.03,0.525-.153.682-0.678,0.678-3.112-.021-6.225-0.011-9.338-0.01a2.285,2.285,0,0,0-.626.02,0.52,0.52,0,0,0-.336.323C386.089,308.728,386.1,310.423,386.1,312.211Zm26.309-10.99a4.212,4.212,0,0,0,.031-0.727c-0.1-.636.193-0.787,0.781-0.758,0.881,0.045,1.766.03,2.649,0.007a0.451,0.451,0,0,1,.555.541q-0.012,7.524,0,15.047a0.476,0.476,0,0,1-.593.57c-0.883-.026-1.769-0.041-2.65,0-0.586.03-.82-0.163-0.741-0.748a4.267,4.267,0,0,0-.038-0.7,8.4,8.4,0,0,1-8.373,1.245,8.012,8.012,0,0,1-4.057-3.253,8.455,8.455,0,0,1,6.224-13.029A8.288,8.288,0,0,1,412.4,301.221Zm-4.886,11.617a5.021,5.021,0,1,0,.022-10.041,5.063,5.063,0,0,0-5.007,5.02A5,5,0,0,0,407.518,312.838Zm-80.061,3.1h-3.239V314.01c-0.39.309-.673,0.539-0.962,0.76-4.2,3.2-12.1,1.635-13.106-5.584a13.883,13.883,0,0,1-.113-1.88q-0.015-6.3,0-12.589V294h3.345v0.741q0,6.42.006,12.84a5.626,5.626,0,0,0,1.834,4.454,5.359,5.359,0,0,0,8.811-3.153,7.6,7.6,0,0,0,.134-1.5q0.015-6.325,0-12.651V294h3.29v21.933Zm5.674-14.056a8.383,8.383,0,0,1,12.2,11.456,8.515,8.515,0,0,1-12.215.76v1.818h-3.165V294.006h3.177v7.874Zm5.489,0.564a5.5,5.5,0,0,0-5.553,5.48,5.51,5.51,0,1,0,11.02.085A5.5,5.5,0,0,0,338.62,302.444Zm92.727,8.374c1.321,0,2.535-.01,3.75.016a0.6,0.6,0,0,1,.38.332,2.923,2.923,0,0,0,2.541,1.8,23.04,23.04,0,0,0,3.064-.023,2.6,2.6,0,0,0,1.031-.429,1.063,1.063,0,0,0,.582-1.271,1.543,1.543,0,0,0-.814-0.905c-1.278-.4-2.6-0.645-3.894-1a34.514,34.514,0,0,1-3.779-1.144,3.778,3.778,0,0,1-2.559-3.692,4.359,4.359,0,0,1,2.39-4.067,10.25,10.25,0,0,1,6.054-1.012,11.983,11.983,0,0,1,3.042.716,5.084,5.084,0,0,1,3.257,4.015c0.092,0.466,0,.709-0.552.691-0.945-.032-1.892.009-2.837-0.023a0.777,0.777,0,0,1-.6-0.3,2.805,2.805,0,0,0-2.6-1.878,11.521,11.521,0,0,0-2.854.175,1.3,1.3,0,0,0-1.136,1.382,1.248,1.248,0,0,0,1.15,1.153c1.586,0.385,3.195.679,4.783,1.057a13.991,13.991,0,0,1,2.449.771,3.953,3.953,0,0,1,2.6,3.148,4.55,4.55,0,0,1-2.015,4.578,7.747,7.747,0,0,1-3.894,1.306,11.407,11.407,0,0,1-6.326-.952A5.994,5.994,0,0,1,431.347,310.818Zm-66.562-1.825H351.74a5.163,5.163,0,0,0,3.061,4.013c2.713,1.151,5,.376,6.877-1.841l2.287,1.687a7.754,7.754,0,0,1-2.815,2.46c-4.517,2.386-10.985.469-12.423-5.306a8.444,8.444,0,0,1,3.462-9.043,8.217,8.217,0,0,1,9.4.2,8.1,8.1,0,0,1,3.195,6.42C364.8,308.024,364.785,308.461,364.785,308.993Zm-3.3-2.595a4.877,4.877,0,0,0-9.6,0h9.6Zm59.912-6.652c0-1.387.025-2.665-.012-3.941a0.524,0.524,0,0,1,.655-0.641c0.924,0.024,1.851.034,2.774,0,0.545-.022.675,0.2,0.661,0.7-0.032,1.09.014,2.182-.02,3.271-0.017.51,0.169,0.642,0.652,0.629,1.092-.03,2.187.011,3.279-0.019,0.482-.012.689,0.119,0.667,0.632-0.034.775-.029,1.553,0,2.328a0.5,0.5,0,0,1-.612.619c-1.114-.028-2.228.012-3.342-0.017a0.531,0.531,0,0,0-.642.662c0.02,2.285.007,4.571,0.01,6.858a1.327,1.327,0,0,0,1.456,1.5c0.84,0.028,1.681.025,2.522,0,0.416-.011.621,0.094,0.607,0.555-0.026.838,0.01,1.678-.024,2.516a0.622,0.622,0,0,1-.322.47,39.276,39.276,0,0,1-4.9-.1c-2.254-.282-3.394-1.747-3.4-4.021-0.009-2.58-.017-5.159.011-7.739,0.006-.557-0.16-0.746-0.714-0.708-0.606.042-1.218,0-1.827,0.014a0.429,0.429,0,0,1-.539-0.5q0.022-1.29,0-2.58a0.427,0.427,0,0,1,.535-0.5C419.68,299.758,420.5,299.746,421.4,299.746ZM374.58,302.78c-0.326,0-.6.015-0.867,0-2.667-.171-3.97,1.834-3.98,3.932-0.014,2.831,0,5.662,0,8.494v0.717h-3.166v-15.96H369.7v1.517a12.382,12.382,0,0,1,2.234-1.391,12.611,12.611,0,0,1,2.648-.392v3.085Z" transform="translate(-310.031 -294)"/>
</svg>
