<svg xmlns="http://www.w3.org/2000/svg" xmlns:xlink="http://www.w3.org/1999/xlink" width="199.469" height="38.594" viewBox="0 0 199.469 38.594">
  <defs>
    <style>
      .cls-1 {
        fill: #fff;
        fill-rule: evenodd;
        filter: url(#filter);
      }
    </style>
    <filter id="filter" x="539.531" y="281.406" width="199.469" height="38.594" filterUnits="userSpaceOnUse">
      <feOffset result="offset" dx="0.5" dy="0.866" in="SourceAlpha"/>
      <feGaussianBlur result="blur" stdDeviation="1"/>
      <feFlood result="flood" flood-color="#000001" flood-opacity="0.2"/>
      <feComposite result="composite" operator="in" in2="blur"/>
      <feBlend result="blend" in="SourceGraphic"/>
    </filter>
  </defs>
  <path id="logo-freenow" class="cls-1" d="M705.522,304.85a3.617,3.617,0,0,1,.342-0.465q8.556-8.55,17.12-17.094,2.788-2.785,5.564-5.586a0.969,0.969,0,0,1,.767-0.312c1.83,0.014,3.66.007,5.49,0.007h0.3l-34.421,34.488V315.3q0-10.567.009-21.136a0.928,0.928,0,0,0-.419-0.845q-7.73-5.764-15.442-11.553c-0.126-.095-0.249-0.194-0.472-0.368h0.573c2.075,0,4.15,0,6.226,0a1.043,1.043,0,0,1,.672.219q6.6,4.94,13.225,9.86a0.744,0.744,0,0,1,.324.69q-0.012,6.018,0,12.037v0.534Zm-33.051-2.25-3.076,7.959c-0.622,1.608-1.251,3.214-1.857,4.828a0.482,0.482,0,0,1-.558.385,9.519,9.519,0,0,0-1.372,0,0.536,0.536,0,0,1-.621-0.446q-3.522-9.466-7.071-18.922c-0.148-.393-0.094-0.5.336-0.485,1.028,0.026,2.059.034,3.087,0a0.6,0.6,0,0,1,.686.493q2.094,5.909,4.216,11.808c0.038,0.106.082,0.21,0.156,0.4l1.331-3.38q1.758-4.473,3.509-8.949a0.464,0.464,0,0,1,.527-0.366,4.337,4.337,0,0,1,1.731.085,2.955,2.955,0,0,1,.706,1.554q2.115,5.355,4.215,10.715c0.036,0.09.076,0.179,0.148,0.348l1.418-3.983c0.981-2.758,1.966-5.513,2.934-8.276a0.545,0.545,0,0,1,.619-0.448c1.045,0.028,2.091.025,3.136,0,0.4-.009.5,0.052,0.342,0.467-1.209,3.194-2.4,6.4-3.588,9.6q-1.735,4.665-3.457,9.334a0.558,0.558,0,0,1-.666.453c-0.564-.057-1.262.213-1.667-0.1a3.554,3.554,0,0,1-.658-1.487q-2.167-5.571-4.332-11.142C672.6,302.918,672.549,302.8,672.471,302.6Zm-53.18.549v1.429c0,3.57-.005,7.14.009,10.711,0,0.372-.078.5-0.474,0.486-0.963-.032-1.927-0.019-2.891,0-0.292,0-.431-0.038-0.43-0.39q0.016-9.537,0-19.074c0-.3.106-0.352,0.39-0.39a3.144,3.144,0,0,1,3.08,1.3c3.085,3.646,6.3,7.181,9.468,10.757,0.126,0.143.257,0.281,0.47,0.513v-0.616c0-3.815.007-7.629-.01-11.444,0-.413.118-0.518,0.519-0.5,0.914,0.03,1.83.031,2.743,0,0.432-.016.57,0.085,0.568,0.548-0.019,4.972-.012,9.944-0.012,14.917,0,1.32-.012,2.641.009,3.961,0,0.346-.106.389-0.43,0.435a3.05,3.05,0,0,1-2.987-1.288c-3.068-3.6-6.246-7.1-9.384-10.635C619.748,303.651,619.561,303.447,619.291,303.149Zm27.286-7.544a10.246,10.246,0,1,1-10.423,10.254A10.235,10.235,0,0,1,646.577,295.605Zm-0.011,16.959a6.426,6.426,0,0,0,6.565-6.712,6.491,6.491,0,0,0-6.429-6.723,6.4,6.4,0,0,0-6.626,6.548C640.054,309.681,642.749,312.541,646.566,312.564Zm-72.465,3.2c-1.438,0-2.793-.008-4.147.006a0.531,0.531,0,0,1-.47-0.353c-1.564-2.345-3.134-4.685-4.682-7.04a0.79,0.79,0,0,0-.792-0.413c-0.652.029-1.307,0.032-1.959,0-0.4-.02-0.522.076-0.518,0.5,0.024,2.283,0,4.566.019,6.848,0,0.351-.063.477-0.447,0.466-1-.031-1.993-0.021-2.989,0a0.31,0.31,0,0,1-.387-0.382q0.014-9.538,0-19.077c0-.244.02-0.393,0.332-0.388,3.021,0.038,6.048-.136,9.061.08a6.089,6.089,0,0,1,5.486,3.518,5.75,5.75,0,0,1-3.463,7.927c-0.462.164-.474,0.287-0.215,0.665,1.667,2.434,3.31,4.883,4.961,7.326C573.948,315.518,574,315.6,574.1,315.764Zm-9.9-11.27c0.7,0,1.4,0,2.105,0a3.684,3.684,0,0,0,1.472-.307,2.229,2.229,0,0,0,1.451-1.974,2.34,2.34,0,0,0-1.073-2.305,3.162,3.162,0,0,0-1.562-.5c-1.581-.092-3.163-0.014-4.745-0.046-0.289-.006-0.3.133-0.3,0.354,0.006,1.482.011,2.963,0,4.445,0,0.287.094,0.35,0.361,0.344C562.665,304.483,563.432,304.494,564.2,304.494Zm13.326,1.327c0-3.147.007-6.294-.008-9.441,0-.363.084-0.462,0.455-0.461q6.764,0.021,13.526,0c0.361,0,.479.081,0.466,0.457-0.03.863-.026,1.728,0,2.592,0.01,0.351-.106.43-0.442,0.428-3.218-.012-6.436,0-9.654-0.016-0.408,0-.561.064-0.546,0.52,0.039,1.173.035,2.348,0,3.521-0.012.428,0.129,0.5,0.519,0.494,2.907-.017,5.815,0,8.723-0.018,0.381,0,.5.089,0.486,0.48-0.033.765-.039,1.534,0,2.3,0.025,0.475-.082.631-0.6,0.625-2.859-.03-5.718,0-8.576-0.026-0.467,0-.558.142-0.55,0.571,0.027,1.336.024,2.674,0,4.01-0.007.371,0.1,0.46,0.462,0.459,3.219-.015,6.437,0,9.655-0.021,0.452,0,.539.132,0.522,0.543-0.032.814-.027,1.631,0,2.446,0.011,0.367-.071.492-0.473,0.491q-6.762-.024-13.526,0c-0.381,0-.448-0.113-0.447-0.464C577.53,312.147,577.524,308.984,577.524,305.821Zm18.808-.007c0-3.13.008-6.261-.009-9.391,0-.411.114-0.506,0.517-0.5q6.688,0.024,13.377,0c0.43,0,.561.1,0.54,0.537-0.039.813-.036,1.63,0,2.444,0.018,0.422-.131.5-0.523,0.5-3.2-.016-6.4,0-9.6-0.018-0.407,0-.566.063-0.551,0.522,0.039,1.157.032,2.315,0,3.472-0.01.412,0.07,0.548,0.524,0.544,2.907-.025,5.815,0,8.722-0.022,0.387,0,.494.1,0.48,0.482a23.237,23.237,0,0,0,0,2.346c0.031,0.5-.152.576-0.6,0.573-2.842-.021-5.684,0-8.526-0.021-0.453,0-.619.079-0.6,0.576,0.039,1.3.037,2.609,0,3.912-0.014.472,0.148,0.553,0.576,0.55,3.185-.017,6.37,0,9.555-0.018,0.411,0,.571.067,0.548,0.524-0.043.862-.023,1.728-0.006,2.592a0.291,0.291,0,0,1-.362.356q-6.861-.01-13.721,0c-0.417,0-.336-0.24-0.336-0.471Q596.332,310.559,596.332,305.814Zm-56.8,0c0-3.113.007-6.227-.009-9.34,0-.4.065-0.558,0.524-0.556q6.591,0.03,13.181,0c0.38,0,.5.091,0.485,0.482-0.031.846-.03,1.695,0,2.542,0.013,0.371-.1.458-0.46,0.456-3.136-.015-6.272,0-9.408-0.021-0.449,0-.538.127-0.528,0.545,0.029,1.173.026,2.347,0,3.52-0.008.381,0.091,0.491,0.482,0.489,2.842-.018,5.684,0,8.526-0.02,0.413,0,.52.109,0.5,0.512-0.032.846-.03,1.7,0,2.542,0.012,0.37-.094.459-0.46,0.457-2.842-.016-5.684,0-8.526-0.021-0.448,0-.531.127-0.528,0.544,0.021,2.462,0,4.924.018,7.385,0,0.328-.064.451-0.422,0.442-0.98-.026-1.961-0.03-2.94,0-0.392.012-.449-0.131-0.448-0.475C539.534,312.137,539.529,308.975,539.529,305.812Z" transform="translate(-539.531 -281.406)"/>
</svg>
