<svg xmlns="http://www.w3.org/2000/svg" xmlns:xlink="http://www.w3.org/1999/xlink" width="105.312" height="37" viewBox="0 0 105.312 37">
  <defs>
    <style>
      .cls-1 {
        fill: #fff;
        fill-rule: evenodd;
        filter: url(#filter);
      }
    </style>
    <filter id="filter" x="312.688" y="282" width="105.312" height="37" filterUnits="userSpaceOnUse">
      <feOffset result="offset" dx="0.5" dy="0.866" in="SourceAlpha"/>
      <feGaussianBlur result="blur" stdDeviation="1"/>
      <feFlood result="flood" flood-color="#000001" flood-opacity="0.2"/>
      <feComposite result="composite" operator="in" in2="blur"/>
      <feBlend result="blend" in="SourceGraphic"/>
    </filter>
  </defs>
  <path id="logo-glovo" class="cls-1" d="M330.046,305.76c-1.483,0-2.882,0-4.281,0a1.772,1.772,0,0,1-1.782-.983,1.727,1.727,0,0,1,1.6-2.487c1.641-.032,3.284-0.009,4.926-0.01,0.481,0,.962-0.017,1.442,0a1.924,1.924,0,0,1,1.99,2.03c0.018,2.019,0,4.039,0,6.058A2.635,2.635,0,0,1,332.8,312.7c-4.192,2.8-8.706,3.558-13.413,1.619a10.471,10.471,0,0,1-6.578-8.986,11.568,11.568,0,0,1,4.832-11.385,11.993,11.993,0,0,1,8.282-2.019,11.792,11.792,0,0,1,6.186,2.229,1.987,1.987,0,0,1,.74,2.344,1.883,1.883,0,0,1-1.906,1.271,3.422,3.422,0,0,1-1.407-.584,8.838,8.838,0,0,0-5.543-1.624,7.242,7.242,0,0,0-6.674,5.412c-0.971,3.346-.459,6.467,2.2,8.858s5.789,2.256,8.969,1.057a2.014,2.014,0,0,0,1.58-2.41A18.822,18.822,0,0,1,330.046,305.76Zm61.055,9.6a8.934,8.934,0,1,1,9.219-8.693A9.036,9.036,0,0,1,391.1,315.356Zm-5.08-8.98a5.275,5.275,0,0,0,4.945,5.512,5.134,5.134,0,0,0,5.376-4.8,5.355,5.355,0,0,0-6.618-5.981A5.176,5.176,0,0,0,386.021,306.376Zm-32.442,8.979a8.931,8.931,0,1,1-.36-17.859c5.231-.115,9.352,3.581,9.458,8.481A8.934,8.934,0,0,1,353.579,315.355Zm5.162-8.941c0-.18.013-0.361,0-0.539a5.078,5.078,0,0,0-2.864-4.348,4.828,4.828,0,0,0-5.134.225,5.371,5.371,0,0,0-2.3,5.545,5.2,5.2,0,0,0,6.012,4.517A5.143,5.143,0,0,0,358.741,306.414ZM406.96,282a7.494,7.494,0,0,1,6.584,3.97,7.283,7.283,0,0,1-.22,7.748c-0.914,1.5-2,2.889-3.018,4.328-0.368.523-.743,1.042-1.11,1.566a2.873,2.873,0,0,1-3.1,1.218,2.248,2.248,0,0,1-1.27-.806c-1.54-2.093-3.085-4.19-4.488-6.375a7.166,7.166,0,0,1-.146-7.746A7.414,7.414,0,0,1,406.96,282Zm-0.113,14.46c1.206-1.736,2.418-3.306,3.434-4.993a3.7,3.7,0,0,0-1.052-4.879,3.881,3.881,0,0,0-5.772,4.976C404.483,293.2,405.653,294.749,406.847,296.46ZM372.42,310.312c0.939-2.389,1.823-4.637,2.707-6.884,0.549-1.394,1.09-2.791,1.652-4.18a3.553,3.553,0,0,1,.5-0.881,1.845,1.845,0,0,1,2.314-.541,1.8,1.8,0,0,1,.949,2.273c-0.376,1.051-.847,2.069-1.293,3.1q-2.116,4.863-4.248,9.72c-0.16.365-.331,0.727-0.52,1.078a2.277,2.277,0,0,1-2.206,1.279,2.169,2.169,0,0,1-2.034-1.347c-0.79-1.725-1.557-3.461-2.32-5.2q-1.748-3.978-3.471-7.967a3.791,3.791,0,0,1-.311-1.085,1.811,1.811,0,0,1,1.369-1.934,1.672,1.672,0,0,1,2.222.884c0.9,2.111,1.741,4.25,2.591,6.384,0.62,1.558,1.217,3.126,1.827,4.69C372.209,309.861,372.289,310.02,372.42,310.312Zm-30.986-7.166c0,3.279.008,6.557,0,9.835a1.972,1.972,0,1,1-3.934.045q-0.014-5.7-.019-11.394c0-2.778.012-5.556,0.018-8.335a1.973,1.973,0,1,1,3.933-.046C341.445,296.549,341.434,299.848,341.434,303.146Zm65.412-.866a2.053,2.053,0,0,1,2.11,2.062,2.1,2.1,0,0,1-2.138,2.051A2.057,2.057,0,1,1,406.846,302.28Z" transform="translate(-312.688 -282)"/>
</svg>
