<svg xmlns="http://www.w3.org/2000/svg" xmlns:xlink="http://www.w3.org/1999/xlink" width="120.969" height="31.625" viewBox="0 0 120.969 31.625">
  <defs>
    <style>
      .cls-1 {
        fill: #fff;
        fill-rule: evenodd;
        filter: url(#filter);
      }
    </style>
    <filter id="filter" x="489.031" y="294.375" width="120.969" height="31.625" filterUnits="userSpaceOnUse">
      <feOffset result="offset" dx="0.5" dy="0.866" in="SourceAlpha"/>
      <feGaussianBlur result="blur" stdDeviation="1"/>
      <feFlood result="flood" flood-color="#000001" flood-opacity="0.2"/>
      <feComposite result="composite" operator="in" in2="blur"/>
      <feBlend result="blend" in="SourceGraphic"/>
    </filter>
  </defs>
  <path id="logo-Boltfood" class="cls-1" d="M489.057,305.072c0-3.185.025-6.37-.017-9.555a0.865,0.865,0,0,1,1.077-1.054c2.469,0.1,4.94-.09,7.411.118a6.472,6.472,0,0,1,5.265,9.073,1.373,1.373,0,0,0,.227,1.638,6.506,6.506,0,0,1-2.862,9.955,7.3,7.3,0,0,1-2.494.466c-2.532.032-5.064,0-7.6,0.027a0.853,0.853,0,0,1-1.035-1.024c0.032-3.214.013-6.429,0.013-9.643h0.011Zm7.183,2.555c-2.222-.039-2.222-0.039-2.189,2.186,0,0.147.018,0.294,0.011,0.441a0.4,0.4,0,0,0,.483.469c1.144-.01,2.292.036,3.431-0.047a1.443,1.443,0,0,0,1.367-1.544,1.462,1.462,0,0,0-1.431-1.5C497.359,307.586,496.8,307.627,496.24,307.627Zm-0.436-5.038c0.322,0,.646.015,0.968,0a1.559,1.559,0,1,0-.016-3.115c-0.439-.024-0.881-0.007-1.321,0-1.395.007-1.395,0.008-1.385,1.362C494.062,302.587,494.062,302.587,495.8,302.589Zm105.373-.906c0-1.642-.025-3.129.01-4.615,0.02-.843-0.388-1.966.181-2.449,0.488-.414,1.573-0.156,2.392-0.133,0.782,0.022,1.776-.354,2.286.174,0.469,0.485.137,1.463,0.139,2.221,0.011,5.982-.014,11.965.02,17.946,0,0.771-.231.96-0.942,0.918a27.4,27.4,0,0,0-2.823-.01c-0.792.036-1.5,0.056-1.293-1.224a5.308,5.308,0,0,1-4.95.985,7.718,7.718,0,0,1-5.186-9.127,7.546,7.546,0,0,1,3.041-4.6A5.811,5.811,0,0,1,601.177,301.683Zm-2.719,8.937a2.5,2.5,0,1,0-2.493-2.443A2.492,2.492,0,0,0,598.458,310.62Zm-53.492-5.515c0-3.243.025-6.486-.018-9.729-0.01-.753.221-0.92,0.938-0.914q5.781,0.051,11.564,0c0.672-.006.938,0.142,0.894,0.872-0.066,1.086-.043,2.181,0,3.27,0.025,0.653-.113.917-0.862,0.9-2.234-.062-4.472-0.009-6.708-0.037a0.655,0.655,0,0,0-.808.8c0.006,2.315-.016,2.32,2.251,2.337,1.295,0.01,2.59.024,3.883-.011a0.569,0.569,0,0,1,.707.706c-0.034,1.208-.04,2.418,0,3.625,0.018,0.566-.191.694-0.715,0.687-1.794-.027-3.59.015-5.384-0.021-0.594-.012-0.746.181-0.739,0.755,0.029,2.21-.01,4.421.023,6.632,0.008,0.573-.137.787-0.729,0.768-1.175-.038-2.354-0.049-3.529,0-0.646.026-.782-0.22-0.778-0.815C544.979,311.649,544.966,308.377,544.966,305.105Zm37.34-4.583a7.7,7.7,0,1,1-7.824,7.666A7.718,7.718,0,0,1,582.306,300.522Zm-0.085,5.243a2.427,2.427,0,0,0-2.5,2.507,2.481,2.481,0,1,0,4.96-.132A2.45,2.45,0,0,0,582.221,305.765Zm-8.651,2.566a7.7,7.7,0,1,1-7.57-7.818A7.662,7.662,0,0,1,573.57,308.331Zm-7.669-2.572a2.421,2.421,0,0,0-2.5,2.423,2.48,2.48,0,0,0,2.4,2.541,2.56,2.56,0,0,0,2.563-2.493A2.474,2.474,0,0,0,565.9,305.759Zm-52.425,10.165a7.67,7.67,0,1,1,.169-15.339A7.67,7.67,0,0,1,513.476,315.924Zm0.006-5.278a2.426,2.426,0,0,0,2.528-2.267,2.483,2.483,0,0,0-2.441-2.67,2.511,2.511,0,0,0-2.55,2.382A2.3,2.3,0,0,0,513.482,310.646Zm23.67-7.317c0,0.589-.013,1.179,0,1.767a0.622,0.622,0,0,1-.745.727c-1.75.033-1.751,0.048-1.746,1.79,0,0.8-.012,1.593.019,2.387a1.547,1.547,0,0,0,1.78,1.763,0.577,0.577,0,0,1,.69.733,17.006,17.006,0,0,0,.01,2.032,1,1,0,0,1-.858,1.132c-2.578.808-6.545-.2-6.609-4.56-0.061-4.126,0-8.254-.018-12.38a0.7,0.7,0,0,1,.675-0.822c1.183-.227,2.361-0.481,3.536-0.748,0.6-.136.8,0.079,0.776,0.67-0.031.706,0.03,1.417-.021,2.121a0.708,0.708,0,0,0,.853.88c1.656,0.042,1.655.066,1.655,1.712Q537.153,302.932,537.152,303.329Zm-14.378,2.218c0-3.034.015-6.069-.012-9.1a0.941,0.941,0,0,1,.934-1.108c0.984-.159,1.947-0.44,2.925-0.639,1.044-.213,1.113-0.161,1.119.895q0.025,4.19.02,8.378c0,3.47-.015,6.941-0.014,10.411,0,1.342.014,1.346-1.327,1.352-0.853,0-1.708-.052-2.557.006a0.881,0.881,0,0,1-1.115-1.089c0.046-3.034.018-6.069,0.018-9.1h0.009ZM511.02,320.2c-0.217-1.189,1.35-2.547,2.438-2.5a2.563,2.563,0,0,1,2.579,2.566,2.46,2.46,0,0,1-2.539,2.479A2.5,2.5,0,0,1,511.02,320.2Z" transform="translate(-489.031 -294.375)"/>
</svg>
