<svg xmlns="http://www.w3.org/2000/svg" width="39.719" height="30.75" viewBox="0 0 39.719 30.75">
  <defs>
    <style>
      .cls-1 {
        fill: #fff;
        fill-rule: evenodd;
      }
    </style>
  </defs>
  <path id="Фигура_22" data-name="Фигура 22" class="cls-1" d="M314.161,39.644a1.869,1.869,0,0,1,.69-1.131,1.644,1.644,0,0,1,.937-0.336c0.108,0,.216-0.005.324-0.005H338.56c-0.074-.082-0.117-0.135-0.165-0.183-1.03-1.032-2.065-2.06-3.091-3.1a1.714,1.714,0,0,1,.305-2.725,1.69,1.69,0,0,1,2.026.213c0.463,0.433.9,0.891,1.352,1.34q2.422,2.419,4.842,4.84a1.739,1.739,0,0,1,0,2.659q-3.021,3.022-6.044,6.043a1.742,1.742,0,0,1-2.263.288,1.718,1.718,0,0,1-.225-2.66q1.541-1.553,3.094-3.094a0.805,0.805,0,0,1,.193-0.108l-0.062-.089h-0.254q-11.118,0-22.236,0a1.738,1.738,0,0,1-1.724-1.036,3.617,3.617,0,0,1-.146-0.439V39.644Zm8.961,3.834a0.566,0.566,0,0,0,.568-0.255,1.664,1.664,0,0,1,2.249-.021,0.578,0.578,0,0,0,.6.254v0.271q0,2.877.006,5.753a2.268,2.268,0,0,0,1.791,2.292,2.525,2.525,0,0,0,.562.06q9.579,0,19.159,0a2.286,2.286,0,0,0,2.361-2.347q0-9.6,0-19.206a2.273,2.273,0,0,0-2.324-2.34q-9.611-.008-19.22,0a2.276,2.276,0,0,0-2.329,2.356c0,1.911,0,3.822,0,5.733V36.3a0.553,0.553,0,0,0-.578.257,1.688,1.688,0,0,1-2.268,0,0.562,0.562,0,0,0-.575-0.245c-0.006-.071-0.012-0.116-0.012-0.161,0-2.019-.014-4.038,0-6.057a5.706,5.706,0,0,1,4.683-5.486,6.723,6.723,0,0,1,1.107-.094q9.579-.009,19.159,0a5.713,5.713,0,0,1,5.734,4.9,5.334,5.334,0,0,1,.058.848q0.006,9.623,0,19.246a5.694,5.694,0,0,1-4.564,5.628,5.978,5.978,0,0,1-1.225.118q-9.579.011-19.159,0a5.711,5.711,0,0,1-5.79-5.659c-0.02-1.979-.009-3.957-0.009-5.936C323.111,43.608,323.117,43.555,323.122,43.477Z" transform="translate(-314.156 -24.5)"/>
</svg>
