<svg xmlns="http://www.w3.org/2000/svg" width="31.97" height="47.63" viewBox="0 0 31.97 47.63">
  <defs>
    <style>
      .cls-1 {
        fill: #ff1d24;
        fill-rule: evenodd;
      }
    </style>
  </defs>
  <path id="marker-1" class="cls-1" d="M1413.99,3271.5a33.628,33.628,0,0,1-2.67,10.74,77.4,77.4,0,0,1-10.74,17.83c-0.58.75-1.19,1.49-1.81,2.22a0.963,0.963,0,0,1-1.61.02c-5.56-6.65-10.36-13.76-13.33-21.96a27.308,27.308,0,0,1-1.8-9.71,15.924,15.924,0,0,1,31.51-2.87C1413.8,3268.99,1413.85,3270.26,1413.99,3271.5Zm-22,.47a5.965,5.965,0,1,0,5.95-5.96A5.973,5.973,0,0,0,1391.99,3271.97Z" transform="translate(-1382.03 -3255.09)"/>
</svg>
