<svg xmlns="http://www.w3.org/2000/svg" xmlns:xlink="http://www.w3.org/1999/xlink" width="28.09" height="29.031" viewBox="0 0 28.09 29.031">
  <defs>
    <style>
      .cls-1 {
        fill: #fff;
        fill-rule: evenodd;
      }
    </style>
    <filter id="filter" x="1173.91" y="64.969" width="28.09" height="29.031" filterUnits="userSpaceOnUse">
      <feOffset result="offset" dx="0.5" dy="0.866" in="SourceAlpha"/>
      <feGaussianBlur result="blur" stdDeviation="1"/>
      <feFlood result="flood" flood-color="#000001" flood-opacity="0.2"/>
      <feComposite result="composite" operator="in" in2="blur"/>
      <feBlend result="blend" in="SourceGraphic"/>
    </filter>
  </defs>
  <path id="phone" class="cls-1" d="M1173.92,72.821a8.806,8.806,0,0,1,.67-3.362,7.528,7.528,0,0,1,1.94-2.73c0.51-.454,1.03-0.892,1.56-1.327a1.922,1.922,0,0,1,.9-0.423,1.557,1.557,0,0,1,1.06.2,3.74,3.74,0,0,1,1.05.932,15.21,15.21,0,0,1,1.1,1.615,12.771,12.771,0,0,1,.88,1.5,4.4,4.4,0,0,1,.45,1.457,2.3,2.3,0,0,1-.6,1.876c-0.28.3-.6,0.553-0.9,0.833a9.353,9.353,0,0,1-.94.726,1.944,1.944,0,0,0-.81,1.106,2.389,2.389,0,0,0,.01,1.188,5.839,5.839,0,0,0,.62,1.5,16.136,16.136,0,0,0,1.68,2.361,22.942,22.942,0,0,0,1.86,2.012,9.03,9.03,0,0,0,1.97,1.484,3.107,3.107,0,0,0,1.27.4,1.856,1.856,0,0,0,1.39-.493,1.813,1.813,0,0,0,.25-0.243,10.087,10.087,0,0,1,1.15-1.073,4.245,4.245,0,0,1,.71-0.545,2.386,2.386,0,0,1,1.99-.19,4.932,4.932,0,0,1,1.55.843c0.55,0.444,1.1.911,1.64,1.372a7.865,7.865,0,0,1,1.07,1.072,3.113,3.113,0,0,1,.55.936,1.528,1.528,0,0,1-.29,1.583,7.9,7.9,0,0,1-.62.612c-0.37.337-.74,0.674-1.12,1a7.541,7.541,0,0,1-2.64,1.449,8.157,8.157,0,0,1-2.83.374,10.269,10.269,0,0,1-3.69-.879,15.947,15.947,0,0,1-3.38-2.025,26.986,26.986,0,0,1-3.62-3.384,32.492,32.492,0,0,1-3.14-4.014,19.437,19.437,0,0,1-1.72-3.192,12.661,12.661,0,0,1-.89-3.069c-0.02-.134-0.04-0.269-0.05-0.4C1173.97,73.542,1173.94,73.182,1173.92,72.821Z" transform="translate(-1173.91 -64.969)"/>
</svg>
