<svg xmlns="http://www.w3.org/2000/svg" width="26" height="18" viewBox="0 0 26 18">
  <defs>
    <style>
      .cls-1 {
        fill: #262424;
        fill-rule: evenodd;
      }
    </style>
  </defs>
  <path id="e-mail" class="cls-1" d="M1096,4639.74v-15.71l-8.87,7.69Zm-26-16.03a0.035,0.035,0,0,0-.01.02v15.89l8.86-8Zm14.61,8.31,10.56-9.16c-0.02,0-.04-0.01-0.06-0.01h-23.94l10.24,9.14A2.422,2.422,0,0,0,1084.61,4632.02Zm0.94,1.07a3.813,3.813,0,0,1-2.52.94,3.862,3.862,0,0,1-2.57-.98l-0.54-.48-9.13,8.25c0.03,0,.06.02,0.09,0.02h24.21l-9.05-8.18Z" transform="translate(-1070 -4622.84)"/>
</svg>
