<svg xmlns="http://www.w3.org/2000/svg" width="19" height="26" viewBox="0 0 19 26">
  <defs>
    <style>
      .cls-1 {
        fill: #262424;
        fill-rule: evenodd;
      }
    </style>
  </defs>
  <path id="marker" class="cls-1" d="M1082.41,4437.94a9.777,9.777,0,0,0-9.5,10.02,18.321,18.321,0,0,0,4.53,11.55,24.659,24.659,0,0,0,4.5,4.28,0.819,0.819,0,0,0,.47.15,0.789,0.789,0,0,0,.46-0.15,23.953,23.953,0,0,0,4.5-4.28,18.265,18.265,0,0,0,4.53-11.55A9.776,9.776,0,0,0,1082.41,4437.94Zm0,13.73a3.85,3.85,0,1,1,3.65-3.84A3.746,3.746,0,0,1,1082.41,4451.67Z" transform="translate(-1072.91 -4437.94)"/>
</svg>
