<svg xmlns="http://www.w3.org/2000/svg" width="26" height="25" viewBox="0 0 26 25">
  <defs>
    <style>
      .cls-1 {
        fill: #262424;
        fill-rule: evenodd;
      }
    </style>
  </defs>
  <path id="phone" class="cls-1" d="M1093.23,4513.09a16.175,16.175,0,0,1-2.67-.53,3.11,3.11,0,0,0-3.06.72l-1.66,1.6a18.847,18.847,0,0,1-7.57-7.29l1.66-1.6a2.859,2.859,0,0,0,.75-2.94,14.284,14.284,0,0,1-.55-2.58,3.017,3.017,0,0,0-3.04-2.6H1073a3.121,3.121,0,0,0-2.26.96,2.92,2.92,0,0,0-.8,1.99,2.452,2.452,0,0,0,.02.27,23.345,23.345,0,0,0,2.31,8.12,24.254,24.254,0,0,0,4.92,6.71,25.13,25.13,0,0,0,6.96,4.73,25.6,25.6,0,0,0,8.44,2.23,3.132,3.132,0,0,0,2.35-.76,2.88,2.88,0,0,0,.99-2.17v-3.94A2.973,2.973,0,0,0,1093.23,4513.09Z" transform="translate(-1069.94 -4497.88)"/>
</svg>
